<?xml version="1.0" encoding="UTF-8" standalone="no"?>
<!DOCTYPE svg PUBLIC "-//W3C//DTD SVG 1.1//EN" "http://www.w3.org/Graphics/SVG/1.1/DTD/svg11.dtd">
<svg width="100%" height="100%" viewBox="0 0 2481 886" version="1.1" xmlns="http://www.w3.org/2000/svg" xmlns:xlink="http://www.w3.org/1999/xlink" xml:space="preserve" xmlns:serif="http://www.serif.com/" style="fill-rule:evenodd;clip-rule:evenodd;stroke-linejoin:round;stroke-miterlimit:1.41421;">
    <g transform="matrix(1,0,0,1,-1.13687e-13,-722.725)">
        <g transform="matrix(4.16667,0,0,4.16667,98.4274,-1129.75)">
            <text x="248.035px" y="536.937px" style="font-family:'Phosphate-Inline', 'Phosphate';font-size:125px;fill:rgb(1,211,151);">Open</text>
            <text x="209.635px" y="644.937px" style="font-family:'Phosphate-Inline', 'Phosphate';font-size:125px;fill:rgb(11,3,129);">Trans</text>
        </g>
        <g transform="matrix(4.47766,0,0,5.07049,-1688.44,-2835.4)">
            <path d="M456.549,865.753L456.538,865.731L450.537,855.339L402.961,772.935L390.959,772.935L444.536,865.734L444.524,865.753L456.549,865.753Z" style="fill:rgb(11,3,129);fill-rule:nonzero;"/>
        </g>
        <g transform="matrix(4.47766,0,0,5.07049,-1688.44,-2835.4)">
            <path d="M504.542,865.753L504.531,865.731L498.53,855.339L492.532,844.951L486.531,834.559L480.534,824.167L474.533,813.775L450.953,772.935L438.955,772.935L468.532,824.167L474.533,834.559L480.534,844.951L486.531,855.339L492.532,865.731L492.517,865.753L504.542,865.753Z" style="fill:rgb(11,3,129);fill-rule:nonzero;"/>
        </g>
        <g transform="matrix(4.47766,0,0,5.07049,-1688.44,-2835.4)">
            <path d="M522.526,855.339L516.529,844.951L510.528,834.559L504.531,824.167L498.53,813.775L492.532,803.387L486.531,792.995L474.95,772.935L462.952,772.935L480.53,803.383L492.532,824.167L498.53,834.559L504.531,844.951L510.528,855.339L516.529,865.731L516.513,865.753L528.538,865.753L528.527,865.734L522.526,855.339Z" style="fill:rgb(11,3,129);fill-rule:nonzero;"/>
        </g>
        <g transform="matrix(4.47766,0,0,5.07049,-1688.44,-2835.4)">
            <path d="M548.39,706.637L536.388,706.637L492.593,782.498L498.594,792.889L548.39,706.637Z" style="fill:rgb(1,211,151);fill-rule:nonzero;"/>
        </g>
        <g transform="matrix(4.47766,0,0,5.07049,-1688.44,-2835.4)">
            <path d="M468.547,865.753L480.546,865.753L480.534,865.731L474.533,855.339L468.536,844.951L462.535,834.559L426.957,772.935L414.959,772.935L456.534,844.947L468.536,865.731L468.521,865.753L468.547,865.753Z" style="fill:rgb(11,3,129);fill-rule:nonzero;"/>
        </g>
        <g transform="matrix(4.47766,0,0,5.07049,-1688.44,-2835.4)">
            <path d="M510.592,813.669L572.386,706.637L560.388,706.637L504.591,803.277L504.656,803.387L510.592,813.669Z" style="fill:rgb(1,211,151);fill-rule:nonzero;"/>
        </g>
        <g transform="matrix(4.47766,0,0,5.07049,-1688.44,-2835.4)">
            <path d="M522.59,834.453L596.383,706.637L584.385,706.637L516.589,824.057L516.654,824.167L522.59,834.453Z" style="fill:rgb(1,211,151);fill-rule:nonzero;"/>
        </g>
        <g transform="matrix(4.47766,0,0,5.07049,-1688.44,-2835.4)">
            <path d="M620.379,706.637L608.381,706.637L528.588,844.841L528.652,844.951L534.589,855.233L620.379,706.637Z" style="fill:rgb(1,211,151);fill-rule:nonzero;"/>
        </g>
    </g>
</svg>
