<?xml version="1.0" encoding="UTF-8" standalone="no"?>
<!DOCTYPE svg PUBLIC "-//W3C//DTD SVG 1.1//EN" "http://www.w3.org/Graphics/SVG/1.1/DTD/svg11.dtd">
<svg width="100%" height="100%" viewBox="0 0 3371 1245" version="1.1" xmlns="http://www.w3.org/2000/svg" xmlns:xlink="http://www.w3.org/1999/xlink" xml:space="preserve" xmlns:serif="http://www.serif.com/" style="fill-rule:evenodd;clip-rule:evenodd;stroke-linejoin:round;stroke-miterlimit:1.41421;">
    <g transform="matrix(1.33333,0,0,1.33333,31.4961,31.4961)">
        <g transform="matrix(1.8098,0,0,4.32649,592.508,-1924.96)">
            <g transform="matrix(287.785,0,0,120.382,298.042,533.857)">
                <path d="M0.02,-0.333C0.02,-0.381 0.029,-0.426 0.048,-0.469C0.066,-0.512 0.091,-0.549 0.123,-0.581C0.154,-0.612 0.191,-0.637 0.234,-0.656C0.277,-0.674 0.322,-0.683 0.37,-0.683C0.418,-0.683 0.463,-0.674 0.506,-0.656C0.549,-0.637 0.586,-0.612 0.618,-0.581C0.649,-0.549 0.674,-0.512 0.693,-0.469C0.711,-0.426 0.72,-0.381 0.72,-0.333C0.72,-0.285 0.711,-0.24 0.693,-0.197C0.674,-0.154 0.649,-0.117 0.618,-0.086C0.586,-0.054 0.549,-0.029 0.506,-0.011C0.463,0.008 0.418,0.017 0.37,0.017C0.322,0.017 0.277,0.008 0.234,-0.011C0.191,-0.029 0.154,-0.054 0.123,-0.086C0.091,-0.117 0.066,-0.154 0.048,-0.197C0.029,-0.24 0.02,-0.285 0.02,-0.333ZM0.114,-0.333C0.114,-0.298 0.121,-0.265 0.134,-0.234C0.147,-0.203 0.166,-0.175 0.189,-0.152C0.212,-0.129 0.24,-0.11 0.271,-0.097C0.302,-0.084 0.335,-0.077 0.37,-0.077C0.405,-0.077 0.439,-0.084 0.47,-0.097C0.501,-0.11 0.528,-0.129 0.551,-0.152C0.574,-0.175 0.593,-0.203 0.606,-0.234C0.619,-0.265 0.626,-0.298 0.626,-0.333C0.626,-0.368 0.619,-0.401 0.606,-0.433C0.593,-0.464 0.574,-0.491 0.551,-0.514C0.528,-0.537 0.501,-0.556 0.47,-0.569C0.439,-0.582 0.405,-0.589 0.37,-0.589C0.335,-0.589 0.302,-0.582 0.271,-0.569C0.24,-0.556 0.212,-0.537 0.189,-0.514C0.166,-0.491 0.147,-0.464 0.134,-0.433C0.121,-0.401 0.114,-0.368 0.114,-0.333ZM0.23,-0.333C0.23,-0.314 0.234,-0.296 0.241,-0.279C0.248,-0.262 0.258,-0.247 0.271,-0.234C0.284,-0.221 0.299,-0.211 0.316,-0.204C0.333,-0.197 0.351,-0.193 0.37,-0.193C0.389,-0.193 0.408,-0.197 0.425,-0.204C0.442,-0.211 0.456,-0.221 0.469,-0.234C0.482,-0.247 0.492,-0.262 0.499,-0.279C0.506,-0.296 0.51,-0.314 0.51,-0.333C0.51,-0.352 0.506,-0.371 0.499,-0.388C0.492,-0.405 0.482,-0.419 0.469,-0.432C0.456,-0.445 0.442,-0.455 0.425,-0.462C0.408,-0.469 0.389,-0.473 0.37,-0.473C0.351,-0.473 0.333,-0.469 0.316,-0.462C0.299,-0.455 0.284,-0.445 0.271,-0.432C0.258,-0.419 0.248,-0.405 0.241,-0.388C0.234,-0.371 0.23,-0.352 0.23,-0.333ZM0.37,-0.103C0.338,-0.103 0.308,-0.109 0.281,-0.121C0.253,-0.133 0.229,-0.15 0.208,-0.171C0.187,-0.192 0.17,-0.216 0.158,-0.244C0.146,-0.271 0.14,-0.301 0.14,-0.333C0.14,-0.365 0.146,-0.395 0.158,-0.423C0.17,-0.45 0.187,-0.474 0.208,-0.496C0.229,-0.517 0.253,-0.533 0.281,-0.545C0.308,-0.557 0.338,-0.563 0.37,-0.563C0.402,-0.563 0.432,-0.557 0.46,-0.545C0.487,-0.533 0.511,-0.517 0.533,-0.496C0.554,-0.474 0.57,-0.45 0.582,-0.423C0.594,-0.395 0.6,-0.365 0.6,-0.333C0.6,-0.301 0.594,-0.271 0.582,-0.244C0.57,-0.216 0.554,-0.192 0.533,-0.171C0.511,-0.15 0.487,-0.133 0.46,-0.121C0.432,-0.109 0.402,-0.103 0.37,-0.103Z" style="fill:white;fill-rule:nonzero;"/>
            </g>
            <g transform="matrix(287.785,0,0,120.382,511.003,533.857)">
                <path d="M0.554,-0.413C0.554,-0.367 0.546,-0.328 0.53,-0.296C0.514,-0.263 0.492,-0.237 0.465,-0.217C0.437,-0.197 0.405,-0.182 0.368,-0.173C0.331,-0.164 0.291,-0.159 0.248,-0.159L0.248,0L0.035,0L0.035,-0.667L0.248,-0.667C0.291,-0.667 0.331,-0.662 0.368,-0.653C0.405,-0.644 0.437,-0.629 0.465,-0.609C0.492,-0.589 0.514,-0.563 0.53,-0.531C0.546,-0.498 0.554,-0.459 0.554,-0.413ZM0.457,-0.413C0.457,-0.443 0.452,-0.469 0.442,-0.491C0.431,-0.513 0.417,-0.531 0.398,-0.545C0.379,-0.559 0.357,-0.57 0.332,-0.577C0.306,-0.584 0.278,-0.587 0.248,-0.587L0.135,-0.587L0.135,-0.08L0.161,-0.08L0.161,-0.239L0.248,-0.239C0.278,-0.239 0.306,-0.243 0.332,-0.25C0.357,-0.257 0.379,-0.267 0.398,-0.281C0.417,-0.295 0.431,-0.313 0.442,-0.335C0.452,-0.357 0.457,-0.383 0.457,-0.413ZM0.429,-0.413C0.429,-0.384 0.424,-0.36 0.414,-0.341C0.404,-0.322 0.391,-0.306 0.374,-0.295C0.357,-0.284 0.338,-0.276 0.317,-0.271C0.295,-0.266 0.272,-0.263 0.248,-0.263L0.161,-0.263L0.161,-0.563L0.248,-0.563C0.272,-0.563 0.295,-0.561 0.317,-0.556C0.338,-0.551 0.357,-0.542 0.374,-0.531C0.391,-0.52 0.404,-0.504 0.414,-0.485C0.424,-0.466 0.429,-0.442 0.429,-0.413ZM0.248,-0.339L0.257,-0.339C0.285,-0.339 0.305,-0.345 0.318,-0.359C0.33,-0.372 0.336,-0.39 0.336,-0.413C0.336,-0.436 0.33,-0.455 0.318,-0.468C0.305,-0.481 0.285,-0.487 0.257,-0.487L0.248,-0.487L0.248,-0.339Z" style="fill:white;fill-rule:nonzero;"/>
            </g>
            <g transform="matrix(287.785,0,0,120.382,674.753,533.857)">
                <path d="M0.035,-0.667L0.428,-0.667L0.428,-0.492L0.248,-0.492L0.248,-0.418L0.425,-0.418L0.425,-0.252L0.248,-0.252L0.248,-0.175L0.435,-0.175L0.435,0L0.035,0L0.035,-0.667ZM0.361,-0.08L0.361,-0.104L0.161,-0.104L0.161,-0.323L0.351,-0.323L0.351,-0.347L0.161,-0.347L0.161,-0.563L0.361,-0.563L0.361,-0.587L0.135,-0.587L0.135,-0.08L0.361,-0.08Z" style="fill:white;fill-rule:nonzero;"/>
            </g>
            <g transform="matrix(287.785,0,0,120.382,807.134,533.857)">
                <path d="M0.035,-0.667L0.21,-0.667L0.394,-0.41L0.394,-0.667L0.603,-0.667L0.603,0L0.427,0L0.244,-0.256L0.244,0L0.035,0L0.035,-0.667ZM0.154,-0.08L0.154,-0.542L0.484,-0.08L0.51,-0.08L0.51,-0.587L0.484,-0.587L0.484,-0.125L0.154,-0.587L0.128,-0.587L0.128,-0.08L0.154,-0.08Z" style="fill:white;fill-rule:nonzero;"/>
            </g>
            <g transform="matrix(287.785,0,0,120.382,209.635,637.868)">
                <path d="M0.123,-0.492L0,-0.492L0,-0.667L0.466,-0.667L0.466,-0.492L0.343,-0.492L0.343,0L0.123,0L0.123,-0.492ZM0.246,-0.08L0.246,-0.563L0.389,-0.563L0.389,-0.587L0.077,-0.587L0.077,-0.563L0.22,-0.563L0.22,-0.08L0.246,-0.08Z" style="fill:white;fill-rule:nonzero;"/>
            </g>
            <g transform="matrix(287.785,0,0,120.382,343.743,637.868)">
                <path d="M0.243,-0.232C0.269,-0.232 0.294,-0.235 0.319,-0.24L0.414,-0.08L0.445,-0.08L0.345,-0.248C0.381,-0.261 0.41,-0.28 0.431,-0.307C0.452,-0.333 0.463,-0.367 0.463,-0.409C0.463,-0.438 0.457,-0.464 0.446,-0.486C0.435,-0.508 0.419,-0.527 0.4,-0.542C0.38,-0.557 0.357,-0.568 0.33,-0.576C0.303,-0.583 0.274,-0.587 0.243,-0.587L0.135,-0.587L0.135,-0.08L0.161,-0.08L0.161,-0.232L0.243,-0.232ZM0.161,-0.256L0.161,-0.563L0.243,-0.563C0.304,-0.563 0.351,-0.55 0.386,-0.523C0.42,-0.496 0.437,-0.458 0.437,-0.409C0.437,-0.36 0.42,-0.322 0.386,-0.296C0.351,-0.269 0.304,-0.256 0.243,-0.256L0.161,-0.256ZM0.035,-0.667L0.265,-0.667C0.308,-0.667 0.347,-0.661 0.384,-0.65C0.42,-0.639 0.451,-0.622 0.478,-0.6C0.505,-0.578 0.526,-0.551 0.541,-0.519C0.556,-0.486 0.563,-0.449 0.563,-0.407C0.563,-0.374 0.558,-0.345 0.549,-0.322C0.54,-0.299 0.529,-0.279 0.518,-0.264C0.505,-0.247 0.49,-0.232 0.473,-0.22L0.598,0L0.348,0L0.248,-0.169L0.248,0L0.035,0L0.035,-0.667ZM0.248,-0.339L0.259,-0.339C0.284,-0.339 0.306,-0.345 0.324,-0.356C0.341,-0.367 0.35,-0.386 0.35,-0.413C0.35,-0.44 0.341,-0.459 0.324,-0.47C0.306,-0.481 0.284,-0.487 0.259,-0.487L0.248,-0.487L0.248,-0.339Z" style="fill:white;fill-rule:nonzero;"/>
            </g>
            <g transform="matrix(287.785,0,0,120.382,511.521,637.868)">
                <path d="M0.233,-0.667L0.393,-0.667L0.646,0L0.436,0L0.414,-0.06L0.212,-0.06L0.19,0L-0.02,0L0.233,-0.667ZM0.358,-0.207L0.313,-0.324L0.268,-0.207L0.358,-0.207ZM0.129,-0.08L0.148,-0.13L0.478,-0.13L0.497,-0.08L0.525,-0.08L0.332,-0.587L0.294,-0.587L0.101,-0.08L0.129,-0.08ZM0.313,-0.563L0.469,-0.154L0.157,-0.154L0.313,-0.563Z" style="fill:white;fill-rule:nonzero;"/>
            </g>
            <g transform="matrix(287.785,0,0,120.382,691.675,637.868)">
                <path d="M0.035,-0.667L0.21,-0.667L0.394,-0.41L0.394,-0.667L0.603,-0.667L0.603,0L0.427,0L0.244,-0.256L0.244,0L0.035,0L0.035,-0.667ZM0.154,-0.08L0.154,-0.542L0.484,-0.08L0.51,-0.08L0.51,-0.587L0.484,-0.587L0.484,-0.125L0.154,-0.587L0.128,-0.587L0.128,-0.08L0.154,-0.08Z" style="fill:white;fill-rule:nonzero;"/>
            </g>
            <g transform="matrix(287.785,0,0,120.382,875.281,637.868)">
                <path d="M0.101,-0.087C0.11,-0.085 0.12,-0.083 0.131,-0.082C0.14,-0.081 0.15,-0.08 0.161,-0.079C0.171,-0.078 0.181,-0.077 0.192,-0.077C0.211,-0.077 0.229,-0.079 0.247,-0.084C0.264,-0.088 0.28,-0.095 0.294,-0.105C0.308,-0.115 0.319,-0.128 0.328,-0.144C0.336,-0.159 0.34,-0.178 0.34,-0.201C0.34,-0.22 0.335,-0.239 0.326,-0.256C0.316,-0.273 0.304,-0.29 0.289,-0.306C0.274,-0.322 0.258,-0.337 0.241,-0.352C0.224,-0.367 0.208,-0.382 0.193,-0.397C0.178,-0.411 0.165,-0.427 0.156,-0.442C0.146,-0.456 0.141,-0.472 0.141,-0.488C0.141,-0.512 0.149,-0.531 0.164,-0.544C0.179,-0.557 0.204,-0.563 0.238,-0.563C0.243,-0.563 0.249,-0.563 0.255,-0.563C0.26,-0.562 0.266,-0.562 0.271,-0.561C0.276,-0.56 0.282,-0.56 0.287,-0.56L0.287,-0.586C0.282,-0.586 0.277,-0.586 0.272,-0.587C0.267,-0.588 0.262,-0.588 0.257,-0.589C0.251,-0.589 0.245,-0.589 0.239,-0.589C0.203,-0.589 0.173,-0.581 0.15,-0.565C0.127,-0.548 0.115,-0.523 0.115,-0.488C0.115,-0.469 0.12,-0.452 0.13,-0.436C0.139,-0.419 0.152,-0.403 0.167,-0.388C0.182,-0.372 0.198,-0.357 0.215,-0.342C0.232,-0.327 0.247,-0.313 0.263,-0.298C0.278,-0.283 0.29,-0.267 0.3,-0.251C0.309,-0.235 0.314,-0.218 0.314,-0.201C0.314,-0.169 0.303,-0.145 0.282,-0.128C0.26,-0.111 0.23,-0.103 0.192,-0.103C0.169,-0.103 0.149,-0.105 0.13,-0.108C0.12,-0.109 0.11,-0.111 0.101,-0.113L0.101,-0.087ZM0.017,-0.207C0.032,-0.202 0.047,-0.199 0.063,-0.196C0.076,-0.193 0.092,-0.19 0.109,-0.188C0.126,-0.186 0.143,-0.185 0.16,-0.185C0.191,-0.185 0.206,-0.196 0.206,-0.219C0.206,-0.228 0.201,-0.237 0.192,-0.246C0.183,-0.255 0.171,-0.265 0.157,-0.276C0.142,-0.286 0.127,-0.299 0.111,-0.312C0.094,-0.325 0.079,-0.341 0.065,-0.358C0.05,-0.375 0.038,-0.395 0.029,-0.417C0.02,-0.438 0.015,-0.463 0.015,-0.491C0.015,-0.522 0.021,-0.55 0.032,-0.574C0.043,-0.598 0.059,-0.618 0.079,-0.634C0.099,-0.65 0.123,-0.662 0.15,-0.671C0.177,-0.679 0.205,-0.683 0.236,-0.683C0.252,-0.683 0.268,-0.682 0.284,-0.681C0.3,-0.679 0.314,-0.677 0.327,-0.676C0.342,-0.674 0.356,-0.672 0.37,-0.67L0.37,-0.483L0.334,-0.487C0.327,-0.488 0.32,-0.488 0.313,-0.488C0.309,-0.488 0.304,-0.488 0.298,-0.488C0.292,-0.487 0.286,-0.486 0.281,-0.485C0.276,-0.484 0.271,-0.481 0.267,-0.478C0.263,-0.475 0.261,-0.47 0.261,-0.464C0.261,-0.459 0.266,-0.452 0.275,-0.444C0.284,-0.436 0.295,-0.427 0.308,-0.416C0.321,-0.405 0.335,-0.393 0.351,-0.379C0.366,-0.365 0.381,-0.349 0.394,-0.331C0.407,-0.313 0.418,-0.293 0.427,-0.27C0.436,-0.247 0.44,-0.222 0.44,-0.194C0.44,-0.165 0.435,-0.137 0.426,-0.112C0.417,-0.086 0.402,-0.064 0.383,-0.045C0.363,-0.025 0.338,-0.011 0.307,0.001C0.276,0.012 0.24,0.017 0.198,0.017C0.173,0.017 0.149,0.016 0.128,0.014C0.106,0.011 0.087,0.008 0.07,0.005C0.051,0.002 0.033,-0.002 0.017,-0.007L0.017,-0.207Z" style="fill:white;fill-rule:nonzero;"/>
            </g>
        </g>
        <g transform="matrix(4.47766,0,0,5.07049,-1688.44,-3558.13)">
            <path d="M456.549,865.753L456.538,865.731L450.537,855.339L402.961,772.935L390.959,772.935L444.536,865.734L444.524,865.753L456.549,865.753Z" style="fill:white;fill-rule:nonzero;"/>
        </g>
        <g transform="matrix(4.47766,0,0,5.07049,-1688.44,-3558.13)">
            <path d="M504.542,865.753L504.531,865.731L498.53,855.339L492.532,844.951L486.531,834.559L480.534,824.167L474.533,813.775L450.953,772.935L438.955,772.935L468.532,824.167L474.533,834.559L480.534,844.951L486.531,855.339L492.532,865.731L492.517,865.753L504.542,865.753Z" style="fill:white;fill-rule:nonzero;"/>
        </g>
        <g transform="matrix(4.47766,0,0,5.07049,-1688.44,-3558.13)">
            <path d="M522.526,855.339L516.529,844.951L510.528,834.559L504.531,824.167L498.53,813.775L492.532,803.387L486.531,792.995L474.95,772.935L462.952,772.935L480.53,803.383L492.532,824.167L498.53,834.559L504.531,844.951L510.528,855.339L516.529,865.731L516.513,865.753L528.538,865.753L528.527,865.734L522.526,855.339Z" style="fill:white;fill-rule:nonzero;"/>
        </g>
        <g transform="matrix(4.47766,0,0,5.07049,-1688.44,-3558.13)">
            <path d="M548.39,706.637L536.388,706.637L492.593,782.498L498.594,792.889L548.39,706.637Z" style="fill:white;fill-rule:nonzero;"/>
        </g>
        <g transform="matrix(4.47766,0,0,5.07049,-1688.44,-3558.13)">
            <path d="M468.547,865.753L480.546,865.753L480.534,865.731L474.533,855.339L468.536,844.951L462.535,834.559L426.957,772.935L414.959,772.935L456.534,844.947L468.536,865.731L468.521,865.753L468.547,865.753Z" style="fill:white;fill-rule:nonzero;"/>
        </g>
        <g transform="matrix(4.47766,0,0,5.07049,-1688.44,-3558.13)">
            <path d="M510.592,813.669L572.386,706.637L560.388,706.637L504.591,803.277L504.656,803.387L510.592,813.669Z" style="fill:white;fill-rule:nonzero;"/>
        </g>
        <g transform="matrix(4.47766,0,0,5.07049,-1688.44,-3558.13)">
            <path d="M522.59,834.453L596.383,706.637L584.385,706.637L516.589,824.057L516.654,824.167L522.59,834.453Z" style="fill:white;fill-rule:nonzero;"/>
        </g>
        <g transform="matrix(4.47766,0,0,5.07049,-1688.44,-3558.13)">
            <path d="M620.379,706.637L608.381,706.637L528.588,844.841L528.652,844.951L534.589,855.233L620.379,706.637Z" style="fill:white;fill-rule:nonzero;"/>
        </g>
    </g>
</svg>
