<svg height="512pt" viewBox="0 0 512 512" width="512pt" xmlns="http://www.w3.org/2000/svg" xmlns:xlink="http://www.w3.org/1999/xlink"><linearGradient id="a" gradientUnits="userSpaceOnUse" x1="255.7440434437" x2="255.7440434437" y1="0" y2="511.9996747873"><stop offset="0" stop-color="#2af598"/><stop offset="1" stop-color="#009efd"/></linearGradient><path d="m289.710938 39.976562h-60.367188c-8.246094-23.257812-30.46875-39.960937-56.515625-39.960937-26.050781 0-48.269531 16.703125-56.519531 39.960937h-56.367188c-33.050781 0-59.941406 26.886719-59.941406 59.9375v331.667969c0 33.050781 26.890625 59.941407 59.941406 59.941407h229.832032c33.015624-.035157 59.878906-27.035157 59.878906-60.195313v-331.414063c-.003906-33.050781-26.890625-59.9375-59.941406-59.9375zm-136.863282 39.960938v-19.980469c0-11.019531 8.960938-19.980469 19.980469-19.980469 11.015625 0 19.980469 8.960938 19.980469 19.980469v19.980469h36.960937v38.960938h-109.890625v-38.960938zm156.84375 351.390625c0 11.148437-8.957031 20.222656-19.941406 20.234375h-229.808594c-11.019531 0-19.980468-8.960938-19.980468-19.980469v-331.667969c0-11.015624 8.960937-19.976562 19.980468-19.976562h19.980469v78.917969h189.808594v-78.917969h19.980469c11.015624 0 19.980468 8.960938 19.980468 19.976562zm-229.769531-89.65625h189.808594v39.960937h-189.808594zm134.492187-143.835937 58.964844 56.996093-27.773437 28.730469-30.851563-29.820312-62.28125 61.6875-35.136718-32.734376-18.414063 18.316407-28.179687-28.328125 45.6875-45.453125 35.195312 32.796875zm297.015626-137.941407c-.003907-16-6.238282-31.042969-17.554688-42.355469s-26.355469-17.539062-42.351562-17.539062c-.003907 0-.011719 0-.015626 0-33.03125.0078125-59.898437 26.886719-59.890624 59.917969l.058593 336.890625c-.003906 10.882812 2.574219 21.773437 7.457031 31.5l.425782.847656 51.964844 82.84375 52.050781-82.867188.429687-.847656c4.890625-9.730468 7.480469-20.625 7.484375-31.519531zm-79.800782 297.796875-.042968-236.804687 39.894531-.023438.039062 236.804688zm19.890625-317.730468h.003907c5.328124 0 10.332031 2.074218 14.101562 5.839843s5.84375 8.773438 5.84375 14.101563l.003906 21-39.890625.023437-.003906-21.015625c-.003906-11 8.941406-19.949218 19.941406-19.949218zm.027344 396.875-17.066406-27.203126c-1.75-3.742187-2.710938-7.851562-2.824219-11.984374l39.847656-.019532c-.125 4.121094-1.089844 8.21875-2.839844 11.957032zm0 0" fill="url(#a)"/></svg>